<svg xmlns="http://www.w3.org/2000/svg" width="1200" height="630" viewBox="0 0 1200 630">
  <defs>
    <linearGradient id="bg" x1="0" y1="0" x2="1" y2="1">
      <stop offset="0" stop-color="#0f0a1d"/>
      <stop offset="1" stop-color="#070510"/>
    </linearGradient>
    <linearGradient id="rose" x1="0" y1="0" x2="1" y2="1">
      <stop offset="0" stop-color="#ff3d8b"/>
      <stop offset="1" stop-color="#a44bff"/>
    </linearGradient>
    <linearGradient id="gold" x1="0" y1="0" x2="1" y2="1">
      <stop offset="0" stop-color="#f1d693"/>
      <stop offset="1" stop-color="#c39a45"/>
    </linearGradient>
    <radialGradient id="glow" cx="50%" cy="0%" r="80%">
      <stop offset="0" stop-color="#a44bff" stop-opacity="0.35"/>
      <stop offset="1" stop-color="#a44bff" stop-opacity="0"/>
    </radialGradient>
  </defs>
  <rect width="1200" height="630" fill="url(#bg)"/>
  <rect width="1200" height="630" fill="url(#glow)"/>
  <!-- 로고 마크 -->
  <g transform="translate(90,235)">
    <rect width="160" height="160" rx="40" fill="url(#rose)"/>
    <rect x="64" y="28" width="32" height="58" rx="16" fill="#fff"/>
    <path d="M44 74 a36 36 0 0 0 72 0" fill="none" stroke="#fff" stroke-width="9" stroke-linecap="round"/>
    <line x1="80" y1="102" x2="80" y2="126" stroke="#fff" stroke-width="9" stroke-linecap="round"/>
    <line x1="62" y1="126" x2="98" y2="126" stroke="#fff" stroke-width="9" stroke-linecap="round"/>
  </g>
  <text x="300" y="290" font-family="'Apple SD Gothic Neo','Malgun Gothic','Noto Sans KR',sans-serif" font-size="78" font-weight="800" fill="#f7f2ff">강남 가라오케 도파민</text>
  <text x="302" y="360" font-family="'Apple SD Gothic Neo','Malgun Gothic','Noto Sans KR',sans-serif" font-size="40" font-weight="700" fill="url(#gold)">24시 연중무휴 · 선릉 · 삼성동 프리미엄 파티 공간</text>
  <text x="302" y="416" font-family="'Apple SD Gothic Neo','Malgun Gothic','Noto Sans KR',sans-serif" font-size="30" fill="#b8accf">최첨단 시설 · 현직 DJ 라이브 · 프라이빗 룸 · 주대 7만원부터</text>
  <rect x="90" y="470" width="1020" height="2" fill="url(#gold)" opacity="0.5"/>
  <text x="90" y="540" font-family="'Apple SD Gothic Neo','Malgun Gothic','Noto Sans KR',sans-serif" font-size="28" fill="#e7c87a">www.dopamine-karaoke.com</text>
</svg>
